<svg aria-hidden="true" style="position: absolute; width: 0; height: 0; overflow: hidden;" version="1.1" xmlns="http://www.w3.org/2000/svg" xmlns:xlink="http://www.w3.org/1999/xlink">
  <defs>
    <symbol id="500px" viewBox="0 0 32 32">
      <title>500px</title>
      <path fill="currentColor" d="M7.906 21.025c0.006 0.019 0.175 0.475 0.269 0.706 0.525 1.244 1.281 2.369 2.244 3.331s2.081 1.719 3.331 2.244c1.294 0.544 2.663 0.825 4.075 0.825s2.788-0.275 4.075-0.825c1.25-0.525 2.369-1.281 3.331-2.244s1.719-2.081 2.244-3.331c0.544-1.294 0.825-2.663 0.825-4.075s-0.275-2.787-0.825-4.075c-0.525-1.25-1.281-2.369-2.244-3.331s-2.081-1.719-3.331-2.244c-1.294-0.544-2.663-0.825-4.075-0.825-1.431 0-2.863 0.287-4.131 0.825-1.019 0.431-2.744 1.537-3.75 2.581l-0.006 0.006v-8.625h14.481c0.525-0.006 0.525-0.744 0.525-0.981 0-0.244 0-0.975-0.531-0.981h-15.656c-0.425 0-0.688 0.356-0.688 0.681v12.131c0 0.394 0.488 0.675 0.944 0.769 0.887 0.188 1.088-0.094 1.306-0.394l0.031-0.037c0.331-0.494 1.363-1.531 1.375-1.544 1.613-1.613 3.769-2.5 6.075-2.5 2.294 0 4.444 0.887 6.056 2.5 1.619 1.619 2.512 3.763 2.512 6.037 0 2.281-0.887 4.431-2.5 6.038-1.587 1.587-3.813 2.5-6.094 2.5-1.544 0-3.037-0.413-4.319-1.194l0.006-7.375c0-0.981 0.425-2.056 1.144-2.863 0.819-0.925 1.944-1.431 3.175-1.431 1.188 0 2.3 0.45 3.131 1.269 0.819 0.813 1.275 1.9 1.275 3.056 0 2.462-1.938 4.394-4.412 4.394-0.475 0-1.344-0.212-1.381-0.219-0.5-0.15-0.713 0.544-0.781 0.775-0.269 0.881 0.137 1.056 0.219 1.081 0.794 0.25 1.319 0.294 2.006 0.294 3.494 0 6.337-2.844 6.337-6.338 0-3.469-2.844-6.287-6.331-6.287-1.712 0-3.319 0.656-4.525 1.838-1.15 1.131-1.806 2.637-1.806 4.137v0.038c-0.006 0.188-0.006 4.613-0.012 6.063l-0.006-0.006c-0.656-0.725-1.306-1.837-1.738-2.975-0.169-0.444-0.55-0.369-1.069-0.206-0.25 0.069-0.938 0.281-0.781 0.788v0zM15.35 19.294c0 0.212 0.194 0.4 0.313 0.506l0.037 0.038c0.2 0.194 0.387 0.294 0.563 0.294 0.144 0 0.231-0.069 0.262-0.1 0.087-0.081 1.075-1.087 1.175-1.181l1.106 1.1c0.1 0.113 0.212 0.175 0.344 0.175 0.175 0 0.369-0.106 0.569-0.313 0.475-0.488 0.238-0.75 0.125-0.875l-1.119-1.119 1.169-1.175c0.256-0.275 0.031-0.569-0.194-0.794-0.325-0.325-0.644-0.412-0.844-0.225l-1.163 1.162-1.175-1.175c-0.063-0.063-0.144-0.094-0.225-0.094-0.156 0-0.344 0.106-0.55 0.313-0.363 0.363-0.438 0.613-0.25 0.813l1.175 1.169-1.169 1.169c-0.106 0.1-0.156 0.206-0.15 0.313zM17.906 3.431c-1.875 0-3.875 0.381-5.338 1.012-0.156 0.063-0.25 0.188-0.269 0.362-0.019 0.169 0.025 0.388 0.137 0.675 0.094 0.231 0.331 0.85 0.8 0.669 1.5-0.575 3.162-0.888 4.669-0.888 1.712 0 3.375 0.338 4.938 0.994 1.244 0.525 2.413 1.287 3.688 2.388 0.094 0.081 0.194 0.119 0.294 0.119 0.25 0 0.488-0.244 0.694-0.475 0.337-0.381 0.575-0.7 0.238-1.019-1.219-1.15-2.55-2.013-4.2-2.712-1.788-0.744-3.694-1.125-5.65-1.125zM28.012 26.6v0c-0.225-0.225-0.419-0.356-0.587-0.406s-0.325-0.012-0.444 0.106l-0.113 0.113c-1.163 1.163-2.519 2.075-4.025 2.712-1.563 0.663-3.219 0.994-4.925 0.994-1.712 0-3.369-0.337-4.925-0.994-1.506-0.637-2.863-1.55-4.025-2.712-1.213-1.212-2.125-2.569-2.713-4.025-0.575-1.425-0.763-2.494-0.825-2.844-0.006-0.031-0.013-0.056-0.013-0.075-0.081-0.413-0.463-0.444-1.006-0.356-0.225 0.038-0.919 0.144-0.856 0.637v0.012c0.181 1.156 0.506 2.288 0.963 3.363 0.731 1.731 1.781 3.288 3.119 4.625s2.894 2.381 4.625 3.119c1.794 0.756 3.7 1.144 5.662 1.144s3.869-0.387 5.663-1.144c1.731-0.731 3.288-1.781 4.625-3.119 0 0 0.075-0.075 0.119-0.119 0.137-0.169 0.269-0.45-0.319-1.031z"></path>
    </symbol>
    <symbol id="codepen" viewBox="0 0 32 32">
      <title>Codepen</title>
      <path fill="currentColor" d="M32 10.909l-0.024-0.116-0.023-0.067c-0.013-0.032-0.024-0.067-0.040-0.1-0.004-0.024-0.020-0.045-0.027-0.067l-0.047-0.089-0.040-0.067-0.059-0.080-0.061-0.060-0.080-0.060-0.061-0.040-0.080-0.059-0.059-0.053-0.020-0.027-14.607-9.772c-0.463-0.309-1.061-0.309-1.523 0l-14.805 9.883-0.051 0.053-0.067 0.075-0.049 0.060-0.067 0.080c-0.027 0.023-0.040 0.040-0.040 0.061l-0.067 0.080-0.027 0.080c-0.027 0.013-0.027 0.053-0.040 0.093l-0.013 0.067c-0.025 0.041-0.025 0.081-0.025 0.121v9.996c0 0.059 0.004 0.12 0.013 0.18l0.013 0.061c0.007 0.040 0.013 0.080 0.027 0.115l0.020 0.067c0.013 0.036 0.021 0.071 0.036 0.1l0.029 0.067c0 0.013 0.020 0.053 0.040 0.080l0.040 0.053c0.020 0.013 0.040 0.053 0.060 0.080l0.040 0.053 0.053 0.053c0.013 0.017 0.013 0.040 0.040 0.040l0.080 0.056 0.053 0.040 0.013 0.019 14.627 9.773c0.219 0.16 0.5 0.217 0.76 0.217s0.52-0.080 0.76-0.24l14.877-9.875 0.069-0.077 0.044-0.060 0.053-0.080 0.040-0.067 0.040-0.093 0.021-0.069 0.040-0.103 0.020-0.060 0.040-0.107v-10c0-0.067 0-0.127-0.021-0.187l-0.019-0.060 0.059 0.004zM16.013 19.283l-4.867-3.253 4.867-3.256 4.867 3.253-4.867 3.253zM14.635 10.384l-5.964 3.987-4.817-3.221 10.781-7.187v6.424zM6.195 16.028l-3.443 2.307v-4.601l3.443 2.301zM8.671 17.695l5.964 3.987v6.427l-10.781-7.188 4.824-3.223v-0.005zM17.387 21.681l5.965-3.973 4.817 3.227-10.783 7.187v-6.427zM25.827 16.041l3.444-2.293v4.608l-3.444-2.307zM23.353 14.388l-5.964-3.988v-6.44l10.78 7.187-4.816 3.224z"></path>
    </symbol>
    <symbol id="github" viewBox="0 0 32 32">
      <title>Github</title>
      <path fill="currentColor" d="M16 0.396c-8.84 0-16 7.164-16 16 0 7.071 4.584 13.067 10.94 15.18 0.8 0.151 1.093-0.344 1.093-0.769 0-0.38-0.013-1.387-0.020-2.72-4.451 0.965-5.389-2.147-5.389-2.147-0.728-1.847-1.78-2.34-1.78-2.34-1.449-0.992 0.112-0.972 0.112-0.972 1.607 0.112 2.451 1.648 2.451 1.648 1.427 2.447 3.745 1.74 4.66 1.331 0.144-1.035 0.556-1.74 1.013-2.14-3.553-0.4-7.288-1.776-7.288-7.907 0-1.747 0.62-3.173 1.647-4.293-0.18-0.404-0.72-2.031 0.14-4.235 0 0 1.34-0.429 4.4 1.64 1.28-0.356 2.64-0.532 4-0.54 1.36 0.008 2.72 0.184 4 0.54 3.040-2.069 4.38-1.64 4.38-1.64 0.86 2.204 0.32 3.831 0.16 4.235 1.020 1.12 1.64 2.547 1.64 4.293 0 6.147-3.74 7.5-7.3 7.893 0.56 0.48 1.080 1.461 1.080 2.96 0 2.141-0.020 3.861-0.020 4.381 0 0.42 0.28 0.92 1.1 0.76 6.401-2.099 10.981-8.099 10.981-15.159 0-8.836-7.164-16-16-16z"></path>
    </symbol>
    <symbol id="linkedin" viewBox="0 0 32 32">
      <title>Linkedin</title>
      <path fill="currentColor" d="M27.263 27.269h-4.739v-7.425c0-1.771-0.036-4.049-2.469-4.049-2.471 0-2.848 1.927-2.848 3.919v7.556h-4.739v-15.269h4.552v2.081h0.061c0.636-1.2 2.183-2.467 4.493-2.467 4.801 0 5.689 3.16 5.689 7.273v8.381zM7.116 9.911c-1.525 0-2.751-1.235-2.751-2.753 0-1.517 1.227-2.751 2.751-2.751 1.52 0 2.752 1.233 2.752 2.751 0 1.519-1.233 2.753-2.752 2.753zM9.492 27.269h-4.752v-15.269h4.752v15.269zM29.633 0h-27.272c-1.305 0-2.361 1.032-2.361 2.305v27.389c0 1.275 1.056 2.305 2.361 2.305h27.268c1.304 0 2.371-1.031 2.371-2.305v-27.389c0-1.273-1.067-2.305-2.371-2.305h0.004z"></path>
    </symbol>
    <symbol id="medium" viewBox="0 0 32 32">
      <title>Medium</title>
      <path fill="currentColor" d="M0 0v32h32v-32h-32zM26.584 7.581l-1.716 1.645c-0.121 0.092-0.198 0.237-0.198 0.399 0 0.030 0.003 0.059 0.007 0.087l-0-0.003v12.089c-0.004 0.025-0.007 0.053-0.007 0.083 0 0.162 0.077 0.306 0.196 0.398l0.001 0.001 1.676 1.645v0.361h-8.429v-0.36l1.736-1.687c0.171-0.171 0.171-0.22 0.171-0.48v-9.773l-4.827 12.26h-0.653l-5.621-12.26v8.217c-0.007 0.046-0.010 0.099-0.010 0.152 0 0.307 0.122 0.586 0.321 0.791l-0-0 2.259 2.739v0.361h-6.403v-0.36l2.26-2.74c0.189-0.196 0.306-0.464 0.306-0.759 0-0.065-0.006-0.129-0.017-0.19l0.001 0.007v-9.501c0.003-0.025 0.004-0.055 0.004-0.085 0-0.245-0.106-0.465-0.274-0.617l-0.001-0.001-2.008-2.419v-0.36h6.232l4.817 10.564 4.235-10.565h5.941v0.361z"></path>
    </symbol>
  </defs>
</svg>
