<svg xmlns="http://www.w3.org/2000/svg">
  <defs>
    <symbol id="figma" viewBox="0 0 32 32">
      <path fill="currentColor" d="M16 16a5.333 5.333 0 1 1 10.666 0A5.333 5.333 0 1 1 16 16zM5.333 26.667a5.333 5.333 0 0 1 5.333-5.333h5.333v5.333a5.333 5.333 0 1 1-10.666 0zM16 0v10.667h5.333a5.333 5.333 0 1 0 0-10.666zM5.333 5.333a5.333 5.333 0 0 0 5.333 5.333h5.333V-.001h-5.333a5.333 5.333 0 0 0-5.333 5.333zm0 10.667a5.333 5.333 0 0 0 5.333 5.333h5.333V10.666h-5.333a5.333 5.333 0 0 0-5.333 5.333z"/>
    </symbol>
    <symbol id="mongodb" viewBox="0 0 32 32">
      <path fill="currentColor" d="M22.907 12.691c-1.684-7.413-5.656-9.849-6.083-10.781-.469-.657-.977-1.909-.977-1.909l-.007.065v.017h-.001a.48.48 0 0 0-.005.052v.02h-.003c0 .013-.003.024-.003.035v.035h-.004c-.001.011-.001.024-.004.033v.028h-.003c0 .009 0 .02-.003.028v.027h-.003a.322.322 0 0 1-.003.043v.003l-.012.067v.011h-.003c-.001.005-.004.011-.004.016v.023h-.004v.029h-.007v.024h-.007v.028h-.005V.61h-.005v.023h-.008v.019h-.005v.024h-.005v.019h-.007v.017h-.004v.02h-.005l-.001.005V.75h-.004l-.001.008v.008h-.003l-.003.013-.013.028V.81l-.007.009V.83h-.005v.011h-.007v.011h-.004v.013h-.008v.019h-.005v.005h-.005V.9h-.005v.015h-.005v.011h-.008v.015h-.005v.011h-.007v.011h-.004v.013h-.007v.011h-.005v.008h-.005v.011h-.008v.012h-.005v.008h-.007v.011h-.005v.015h-.007v.005h-.004v.011h-.008v.005h-.005v.013h-.005v.005h-.005v.011h-.007v.008h-.004l-.003.005v.005h-.003c-.001.003-.003.003-.003.005v.001h-.001a.02.02 0 0 1-.005.009v.004h-.001c-.007.008-.011.016-.016.024v.001c-.003.003-.009.008-.012.013v.003h-.001l-.004.004v.004h-.003l-.004.004v.001h-.001l-.004.005v.005h-.004l-.003.003v.003h-.003c0 .003-.003.003-.003.004v.004h-.005l-.003.004v.008h-.004v.005h-.005v.008h-.005v.011h-.007v-.011h-.007v.005h-.005v.008h-.007v.011h-.007v.005h-.005v.008h-.005v.005h-.005v.011h-.008V1.3h-.005v.008h-.007v.005h-.005v.007h-.007v.013h-.003v.005h-.008v.007h-.005v.003h-.005v.005h-.007v.013h-.005v.005h-.007v.005h-.005v.008h-.007v.005h-.007v.005H15.3v.005h-.005v.013h-.005v.007h-.008v.005h-.005v.005h-.007v.008h-.005v.005h-.007v.009h-.005v.005h-.008v.008h-.003v.005h-.005v.005h-.007v.005h-.005v.008h-.007v.005h-.004l-.001.003v.003h-.003l-.005.005-.005.004v.008h-.005v.007h-.005v.005h-.005v.005h-.004l-.004.004v.004h-.003l-.003.003v.004h-.003c-.007.008-.009.013-.019.021l-.016.013a.493.493 0 0 0-.052.043c-.011.007-.021.016-.029.023v.001h-.001a7.387 7.387 0 0 1-.065.052v.001l-.099.083v-.001h-.003c-.076.063-.156.133-.248.212v.001h-.001c-.225.197-.493.451-.793.757l-.025.025c-1.813 1.876-4.671 5.785-4.972 12.103-.027.523-.021 1.031.008 1.525v.012c.145 2.489.927 4.615 1.904 6.341v.001a16.56 16.56 0 0 0 1.235 1.873v.001c1.469 1.94 2.969 3.089 3.352 3.368.588 1.364.533 3.705.533 3.705l.859.287s-.175-2.268.071-3.363a2.08 2.08 0 0 1 .465-.883c.141-.1.56-.401 1.063-.86.024-.025.037-.048.059-.072 2.028-1.891 5.816-6.547 4.517-14.132z"/>
    </symbol>
    <symbol id="graphql" viewBox="0 0 32 32">
      <path fill="currentColor" d="m18.735 3.668 6.58 3.8a2.86 2.86 0 0 1 4.546.533 2.862 2.862 0 0 1-1.805 4.201v7.599a2.842 2.842 0 0 1 1.798 4.2 2.858 2.858 0 0 1-4.604.471l-6.54 3.776a2.854 2.854 0 1 1-5.561.904c0-.273.039-.547.117-.812l-6.581-3.796a2.853 2.853 0 1 1-2.736-4.746l.001-7.599a2.855 2.855 0 0 1-1.809-4.2 2.858 2.858 0 0 1 4.543-.54l6.584-3.8a2.85 2.85 0 0 1 2.734-3.66 2.848 2.848 0 0 1 2.734 3.668zm-.687 1.169a.932.932 0 0 1-.077.077l8.615 14.92c.035-.012.075-.021.109-.031v-7.609a2.846 2.846 0 0 1-2.077-3.451l.025-.096zm-4.02.079-.08-.08-6.595 3.803a2.848 2.848 0 0 1-1.948 3.527c-.035.011-.068.019-.101.028v7.611l.112.031 8.615-14.92zm2.768.676a2.88 2.88 0 0 1-1.589 0L6.594 20.511c.392.377.669.86.8 1.388h17.215a2.86 2.86 0 0 1 .804-1.392zm1.315 21.636 6.551-3.784a2.512 2.512 0 0 1-.051-.189H7.39l-.028.111 6.585 3.803A2.832 2.832 0 0 1 16 26.298c.836 0 1.587.359 2.111.931z"/>
    </symbol>
    <symbol id="eslint" viewBox="0 0 32 32">
      <path fill="currentColor" d="m9.676 12.176 6.079-3.509a.487.487 0 0 1 .493.001l-.002-.001 6.079 3.509a.492.492 0 0 1 .245.426V19.62a.492.492 0 0 1-.243.424l-.002.001-6.079 3.509a.487.487 0 0 1-.493-.001l.002.001-6.079-3.509a.492.492 0 0 1-.245-.426v-7.017c0-.181.098-.339.243-.425l.002-.001zm22.127 3.197L24.542 2.74c-.264-.457-.752-.795-1.28-.795H8.741c-.528 0-1.016.337-1.28.795L.2 15.345a1.496 1.496 0 0 0 .003 1.497l-.004-.007 7.263 12.531c.263.456.751.689 1.279.689h14.524c.527 0 1.013-.227 1.279-.683l7.261-12.551c.124-.207.198-.457.198-.724s-.073-.517-.201-.73l.004.007zm-6.012 6.075a.531.531 0 0 1-.269.449l-.003.001-9.252 5.336a.527.527 0 0 1-.525-.002l.003.001-9.257-5.336a.533.533 0 0 1-.273-.45V10.771a.53.53 0 0 1 .272-.451l9.248-5.336a.525.525 0 0 1 .523 0l9.257 5.337c.161.09.269.257.275.45v.001z"/>
    </symbol>
    <symbol id="jest" viewBox="0 0 32 32">
      <path fill="currentColor" d="M29.668 15.76a4.159 4.159 0 0 0-3.075-4.007l-.029-.007L30.548-.001H10.805L14.8 11.783a4.162 4.162 0 0 0-2.992 3.984c0 1.391.693 2.623 1.751 3.381a11.112 11.112 0 0 1-1.44 1.653l-.006.005a10.857 10.857 0 0 1-3.328 2.17l-.072.026c-1.112-.751-1.593-2.075-1.159-3.261 1.704-.541 2.917-2.109 2.917-3.96a4.147 4.147 0 0 0-4.129-4.147h-.001a4.157 4.157 0 0 0-4.151 4.15c0 1.131.463 2.168 1.204 2.909-.064.129-.129.26-.195.399-.62 1.279-1.324 2.724-1.593 4.345-.537 3.243.343 5.845 2.465 7.319a6.738 6.738 0 0 0 3.914 1.241h.014-.001c2.436 0 4.909-1.223 7.3-2.409 1.705-.843 3.465-1.723 5.197-2.149.64-.157 1.307-.249 2.011-.352 1.427-.204 2.9-.416 4.224-1.187a5.997 5.997 0 0 0 2.904-4.084l.006-.037a6.12 6.12 0 0 0-.592-3.827c.397-.64.62-1.389.62-2.195zm-1.807 0a2.336 2.336 0 0 1-2.333 2.333 2.338 2.338 0 0 1-1.452-4.164l.005-.004.009-.009c.075-.056.157-.112.24-.167 0 0 .011 0 .011-.009.037-.019.073-.047.111-.067.009 0 .019-.008.028-.008.037-.019.084-.037.129-.056.047-.019.093-.036.131-.055.009 0 .017-.009.027-.009.037-.009.075-.028.112-.037.009 0 .027-.009.037-.009.045-.009.083-.019.129-.027h.009l.139-.029c.009 0 .027 0 .037-.009.037 0 .073-.009.111-.009h.047c.047 0 .093-.009.148-.009h.12c.037 0 .067 0 .103.009h.019a2.358 2.358 0 0 1 2.084 2.335zM13.391 1.853h14.573l-3.345 9.867a3.255 3.255 0 0 0-.416.12l-3.52-7.18-3.531 7.133c-.139-.045-.288-.073-.436-.101zm6.624 13.1a4.115 4.115 0 0 0-1.248-2.221l-.003-.003 1.917-3.872 1.936 3.956a4.185 4.185 0 0 0-1.157 2.14zm-4.642-1.464c.045-.009.083-.019.129-.027h.027c.039-.011.075-.011.112-.02h.037c.037 0 .065-.009.101-.009h.361c.037 0 .065.009.093.009a.09.09 0 0 1 .047.009c.036.009.064.009.101.019.009 0 .019 0 .037.009l.129.027h.009c.037.011.075.02.111.039.009 0 .019.009.037.009.028.009.065.019.093.036.009 0 .019.009.027.009.037.019.075.028.112.047h.009c.046.018.085.04.121.066l-.001-.001h.009c.037.019.075.045.112.064.009 0 .009.009.017.009.037.019.067.047.103.065l.009.009c.111.083.213.176.315.268l.009.009c.396.417.64.982.64 1.604v.009a2.337 2.337 0 0 1-4.67.004v-.011c0-1.083.741-1.993 1.744-2.25l.016-.004zm-9.117-.065c1.288 0 2.335 1.048 2.335 2.335s-1.047 2.335-2.333 2.335-2.336-1.047-2.336-2.333 1.048-2.336 2.335-2.336zm21.551 8.033a4.105 4.105 0 0 1-1.991 2.833l-.02.011c-1.011.584-2.252.769-3.559.955-.871.112-1.613.248-2.343.419l.156-.031c-1.927.473-3.779 1.4-5.576 2.289-2.299 1.139-4.467 2.213-6.476 2.213h-.03a4.84 4.84 0 0 1-2.856-.927l.014.01c-2.039-1.408-1.937-4.048-1.696-5.493.223-1.353.843-2.621 1.436-3.836.037-.073.065-.139.103-.213.203.075.416.131.639.168-.352 1.964.648 3.992 2.595 4.993l.352.185.379-.139c1.621-.575 3.123-1.511 4.448-2.761a12.526 12.526 0 0 0 1.898-2.242l.029-.046c.213.036.427.045.64.045a4.158 4.158 0 0 0 4.004-3.074l.007-.029h1.556a4.154 4.154 0 0 0 4.012 3.103h.001c.768 0 1.48-.213 2.093-.573.24.693.315 1.417.185 2.14z"/>
    </symbol>
    <symbol id="netlify" viewBox="0 0 32 32">
      <path fill="currentColor" d="M22.579 11.359a1.4 1.4 0 0 1 .403.306l.001.001 3.132-1.393-2.923-2.895-.655 3.939zM16.08 8.728c.146.217.245.477.278.757l.001.008 4.663 1.976c.134-.104.292-.185.463-.234l.01-.002.765-4.733-2.84-2.979-3.34 5.136zm15.911 7.321-4.997-4.997-3.397 1.392 8.352 3.549s.071.056.043.056zm-.836.808-8.017-3.425a1.39 1.39 0 0 1-.926.542l-.007.001-.863 5.276c.248.25.402.594.404.974l4.844 1.016 4.44-4.413v-.083zm-10.622-4.524-4.357-1.853a1.6 1.6 0 0 1-1.339.725l-.055-.001h.003-.265l-3.605 5.569 9.633-4.176v.013a1.258 1.258 0 0 1 .001-.227v.005l.001-.012a.066.066 0 0 0-.015-.043zm5.29 9.744-4.26-.877a1.467 1.467 0 0 1-.604.455l-.01.003-1.015 6.293 5.916-5.861s-.013.027-.028.027zm-5.959-.432a1.399 1.399 0 0 1-.819-.937l-.002-.01-7.933-1.629-.112.181 7.197 10.413.431-.432 1.225-7.56s.041.029.013.015zm-8.588-3.536 7.837 1.615c.227-.39.628-.658 1.094-.696h.005l.849-5.192-.18-.153-9.744 4.176c.045.069.091.151.132.236l.006.014zm-3.285 1.308-.167-.167-3.383 1.392 1.643 1.629 1.865-2.896zm2.226.53c-.22.104-.478.165-.75.167h-.008a1.87 1.87 0 0 1-.606-.101l.013.004-2.059 2.993 9.02 8.936 1.587-1.573zm-1.266-3.522a2.254 2.254 0 0 1 .428 0l-.009-.001a1.817 1.817 0 0 1 .468.001l-.009-.001 3.647-5.667a1.58 1.58 0 0 1-.445-1.098 1.673 1.673 0 0 1 .001-.369l-.001.008-4.427-2.047-3.563 3.467zm.404-9.869 4.316 1.837a1.645 1.645 0 0 1 1.116-.376h-.003c.19.002.371.032.542.088l-.013-.004 3.368-5.263L15.897.054 9.354 6.471s-.013.069 0 .084zM7.741 17.441c.092-.17.198-.316.321-.446l-.001.001-3.691-5.512-4.371 4.245zm-.349.934L.711 16.98l2.937 2.98 3.703-1.573z"/>
    </symbol>
    <symbol id="tailwind" viewBox="0 0 32 32">
      <path fill="currentColor" d="M16.001 6.4c-4.267 0-6.933 2.133-8 6.4 1.6-2.133 3.467-2.933 5.6-2.4 1.217.304 2.087 1.187 3.051 2.165C18.221 14.157 20.036 16 24.001 16c4.267 0 6.933-2.133 8-6.4-1.6 2.133-3.467 2.933-5.6 2.4-1.217-.304-2.087-1.187-3.051-2.165C21.782 8.243 19.967 6.4 16.001 6.4zm-8 9.6c-4.267 0-6.933 2.133-8 6.4 1.6-2.133 3.467-2.933 5.6-2.4 1.217.304 2.087 1.187 3.051 2.165 1.569 1.592 3.384 3.435 7.349 3.435 4.267 0 6.933-2.133 8-6.4-1.6 2.133-3.467 2.933-5.6 2.4-1.217-.304-2.087-1.187-3.051-2.165C13.782 17.843 11.967 16 8.001 16z"/>
    </symbol>
    <symbol id="gatsby" viewBox="0 0 32 32">
      <path fill="currentColor" d="M16.001.009C7.101.009.009 7.101.009 16S7.101 31.993 16 31.993s15.992-7.092 15.992-15.992S24.901.009 16.001.009zM3.485 16.14l12.377 12.377c-6.815 0-12.377-5.563-12.377-12.377zm15.298 12.099L3.764 13.22C5.013 7.657 10.021 3.485 16 3.485a12.615 12.615 0 0 1 10.128 5.113l.024.034-1.807 1.528c-1.864-2.702-4.943-4.449-8.429-4.449h-.056.003-.065c-4.396 0-8.135 2.816-9.51 6.743l-.022.071 13.072 13.073c3.2-1.113 5.701-3.893 6.397-7.232h-5.424v-2.364h8.205c0 5.98-4.172 10.987-9.735 12.237z"/>
    </symbol>
    <symbol id="svelte" viewBox="0 0 32 32">
      <path fill="currentColor" d="M27.573 4.227C25.794 1.668 22.868.014 19.557.014a9.693 9.693 0 0 0-5.093 1.437l.042-.024-7.467 4.747c-2.002 1.268-3.42 3.303-3.846 5.682l-.008.051a8.627 8.627 0 0 0-.146 1.604c0 1.526.385 2.962 1.063 4.216l-.023-.047a8.094 8.094 0 0 0-1.26 3.151l-.007.049a8.905 8.905 0 0 0-.141 1.595c0 1.982.632 3.816 1.706 5.312l-.019-.027c1.787 2.562 4.721 4.218 8.041 4.218a9.722 9.722 0 0 0 5.069-1.416l-.043.024 7.467-4.747c1.996-1.27 3.41-3.305 3.832-5.682l.008-.051a8.617 8.617 0 0 0 .144-1.594 8.842 8.842 0 0 0-1.061-4.213l.023.047a8.97 8.97 0 0 0 1.416-4.862 9.016 9.016 0 0 0-1.702-5.285l.018.027zM13.76 28.173c-.446.121-.958.19-1.486.19a5.901 5.901 0 0 1-4.848-2.531l-.013-.019c-.867-1.2-1.187-2.68-.933-4.147l.147-.707.133-.44.4.267a9.253 9.253 0 0 0 2.92 1.467l.267.093-.027.267c-.027.373.08.787.293 1.107.44.627 1.2.933 1.933.733.16-.053.32-.107.453-.187l7.44-4.747c.373-.24.613-.6.707-1.027.08-.44-.027-.893-.267-1.253a1.819 1.819 0 0 0-1.933-.707 2.46 2.46 0 0 0-.467.2l-2.813 1.787a5.84 5.84 0 0 1-3.017.829 5.9 5.9 0 0 1-4.837-2.516l-.013-.019a5.427 5.427 0 0 1-1.02-3.179c0-.342.031-.677.091-1.001l-.005.034a5.148 5.148 0 0 1 2.338-3.454l.022-.013 7.427-4.747a5.995 5.995 0 0 1 1.52-.667c2.4-.627 4.933.32 6.347 2.347a5.451 5.451 0 0 1 1.019 3.187c0 .595-.095 1.168-.27 1.705l.011-.039-.133.44-.387-.267a9.818 9.818 0 0 0-2.863-1.448l-.07-.019-.267-.08.027-.267a1.84 1.84 0 0 0-.293-1.12 1.796 1.796 0 0 0-1.933-.707c-.16.053-.32.107-.453.187l-7.453 4.787c-.373.253-.613.6-.693 1.04-.08.427.027.893.267 1.24.427.627 1.2.893 1.92.707.173-.053.333-.107.467-.187l2.84-1.813a5.375 5.375 0 0 1 1.52-.68 5.9 5.9 0 0 1 6.347 2.36c.867 1.2 1.2 2.68.96 4.133a5.15 5.15 0 0 1-2.312 3.454l-.021.012-7.44 4.733a6.404 6.404 0 0 1-1.5.668l-.046.012z"/>
    </symbol>
    <symbol id="react" viewBox="0 0 32 32">
      <path fill="currentColor" d="M16 13.148a2.852 2.852 0 0 0 0 5.704 2.852 2.852 0 0 0 0-5.704zm-7.989 8.525-.629-.16C2.691 20.328.001 18.316.001 15.994s2.691-4.333 7.381-5.519l.629-.159.177.624a31.104 31.104 0 0 0 1.899 4.957l-.082-.186.135.284-.135.284a29.368 29.368 0 0 0-1.761 4.551l-.056.22zm-.922-9.74c-3.565 1.001-5.753 2.533-5.753 4.061 0 1.527 2.188 3.059 5.753 4.061a32.611 32.611 0 0 1 1.662-4.263l-.086.202a30.435 30.435 0 0 1-1.511-3.828l-.065-.234zm16.9 9.74-.177-.625a30.782 30.782 0 0 0-1.9-4.954l.081.184-.135-.284.135-.284a29.456 29.456 0 0 0 1.762-4.55l.056-.221.177-.624.631.159c4.689 1.185 7.38 3.197 7.38 5.52s-2.691 4.333-7.38 5.519zm-.654-5.678a33.038 33.038 0 0 1 1.576 4.061c3.567-1.003 5.753-2.535 5.753-4.061 0-1.528-2.188-3.059-5.753-4.061a32.424 32.424 0 0 1-1.662 4.262l.086-.2zM7.08 11.927l-.177-.623C5.584 6.656 5.984 3.325 8 2.163c1.977-1.141 5.152.207 8.479 3.621l.453.465-.453.465a31.6 31.6 0 0 0-3.162 3.853l-.068.103-.18.257-.313.027a31.667 31.667 0 0 0-5.264.86l.218-.047zm2.528-8.84c-.357 0-.673.077-.94.231-1.325.764-1.56 3.42-.647 7.004a31.194 31.194 0 0 1 4.18-.658l.131-.01a33.328 33.328 0 0 1 2.756-3.414l-.02.022c-2.08-2.025-4.049-3.175-5.46-3.175zm12.785 27.149c-.001 0-.001 0 0 0-1.9 0-4.34-1.431-6.872-4.031l-.453-.465.453-.465a31.427 31.427 0 0 0 3.16-3.854l.068-.103.18-.257.312-.027a31.74 31.74 0 0 0 5.267-.858l-.218.046.629-.159.179.624c1.316 4.645.917 7.977-1.099 9.139a3.132 3.132 0 0 1-1.562.411h-.047.002zm-5.461-4.508c2.08 2.025 4.049 3.175 5.46 3.175h.001c.356 0 .673-.077.939-.231 1.325-.764 1.561-3.421.647-7.005a30.933 30.933 0 0 1-4.182.658l-.13.01a33.219 33.219 0 0 1-2.755 3.416l.02-.022zm7.988-13.801-.629-.159c-1.453-.376-3.175-.664-4.939-.806l-.111-.007-.312-.027-.18-.257a31.57 31.57 0 0 0-3.237-3.966l.009.01-.453-.465.453-.465C18.846 2.372 22.02 1.024 24 2.164c2.016 1.163 2.416 4.493 1.099 9.14zm-5.253-2.274c1.523.139 2.969.364 4.312.668.915-3.584.679-6.24-.647-7.004-1.317-.761-3.793.405-6.4 2.944a33.376 33.376 0 0 1 2.666 3.289l.069.103zM9.608 30.236h-.046a3.153 3.153 0 0 1-1.577-.419l.015.008c-2.016-1.161-2.416-4.492-1.097-9.139l.176-.624.629.159c1.54.388 3.239.661 5.047.812l.313.027.179.257a31.521 31.521 0 0 0 3.239 3.967l-.01-.01.453.465-.453.465c-2.531 2.6-4.971 4.031-6.868 4.031zm-1.587-8.569c-.915 3.584-.679 6.241.647 7.005 1.316.751 3.791-.407 6.4-2.944a33.543 33.543 0 0 1-2.667-3.29l-.069-.103a33.315 33.315 0 0 1-4.534-.711l.224.043zm7.979.837c-1.097 0-2.225-.048-3.355-.141l-.313-.027-.18-.257a38.303 38.303 0 0 1-1.697-2.639l-.103-.19a36.12 36.12 0 0 1-1.45-2.728l-.105-.243-.133-.284.133-.284a38.537 38.537 0 0 1 1.658-3.161l-.103.191a40.4 40.4 0 0 1 1.8-2.829l.18-.257.313-.027a40.227 40.227 0 0 1 6.86.011l-.15-.011.312.027.179.257a39.103 39.103 0 0 1 3.252 5.56l.104.24.135.284-.135.284a39.328 39.328 0 0 1-3.439 5.925l.083-.125-.179.257-.312.027a41.083 41.083 0 0 1-3.356.141zm-2.929-1.445c1.973.148 3.885.148 5.86 0a37.57 37.57 0 0 0 2.827-4.836l.101-.228a37.891 37.891 0 0 0-3.012-5.19l.083.126a39.304 39.304 0 0 0-5.992.008l.134-.008a36.95 36.95 0 0 0-2.83 4.84l-.099.224a38.502 38.502 0 0 0 3.014 5.193l-.085-.13z"/>
    </symbol>
    <symbol id="nodejs" viewBox="0 0 32 32">
      <path fill="currentColor" d="M15.997 32c-.428 0-.855-.112-1.229-.329l-3.915-2.316c-.584-.327-.299-.443-.107-.511.78-.271.937-.333 1.771-.805.087-.049.201-.031.291.023l3.008 1.785c.109.06.263.06.363 0l11.727-6.768a.37.37 0 0 0 .179-.317V9.229a.38.38 0 0 0-.183-.323L16.181 2.143a.368.368 0 0 0-.361 0L4.101 8.907a.378.378 0 0 0-.185.321v13.533c0 .129.072.252.185.313l3.212 1.856c1.743.872 2.811-.155 2.811-1.187V10.382c0-.189.152-.337.341-.337h1.487a.34.34 0 0 1 .34.337v13.361c0 2.327-1.267 3.66-3.472 3.66-.677 0-1.212 0-2.701-.735l-3.077-1.769a2.475 2.475 0 0 1-1.229-2.139V9.227c0-.879.471-1.7 1.229-2.137L14.769.314a2.567 2.567 0 0 1 2.464 0L28.958 7.09a2.475 2.475 0 0 1 1.232 2.137V22.76c0 .879-.472 1.697-1.232 2.139L17.233 31.67a2.45 2.45 0 0 1-1.233.329zm9.468-13.343c0-2.533-1.712-3.208-5.316-3.684-3.641-.481-4.012-.731-4.012-1.583 0-.704.313-1.644 3.011-1.644 2.409 0 3.297.519 3.663 2.143a.338.338 0 0 0 .329.265h1.521a.34.34 0 0 0 .337-.369c-.236-2.797-2.095-4.101-5.851-4.101-3.344 0-5.339 1.411-5.339 3.777 0 2.567 1.984 3.276 5.193 3.593 3.84.376 4.137.937 4.137 1.692 0 1.311-1.052 1.869-3.523 1.869-3.103 0-3.785-.779-4.015-2.323a.34.34 0 0 0-.337-.287h-1.516a.336.336 0 0 0-.339.337c0 1.976 1.075 4.331 6.207 4.331 3.717.001 5.848-1.461 5.848-4.017z"/>
    </symbol>
    <symbol id="typescript" viewBox="0 0 32 32">
      <path fill="currentColor" d="M0 16v16h32V0H0zm25.788-1.275a3.982 3.982 0 0 1 2.001 1.153c.295.315.732.888.767 1.027.011.04-1.381.973-2.224 1.497-.031.02-.153-.112-.289-.315-.413-.6-.844-.859-1.504-.904-.971-.067-1.595.441-1.589 1.289l-.001.05c0 .201.051.391.14.557l-.003-.006c.213.441.611.707 1.853 1.244 2.292.987 3.272 1.636 3.881 2.56.68 1.031.833 2.677.371 3.901-.507 1.331-1.767 2.235-3.54 2.533-.548.097-1.848.083-2.437-.024-1.285-.229-2.504-.864-3.256-1.697-.295-.324-.869-1.173-.833-1.233.015-.021.147-.103.293-.188.144-.081.681-.392 1.189-.687l.92-.533.193.285c.269.411.857.975 1.213 1.163 1.021.539 2.423.463 3.113-.157a1.175 1.175 0 0 0 .417-.962v.003c0-.371-.047-.533-.24-.813-.248-.355-.756-.653-2.199-1.28-1.651-.711-2.361-1.152-3.012-1.853a4.215 4.215 0 0 1-.871-1.57l-.008-.03c-.121-.452-.152-1.585-.056-2.041.34-1.596 1.544-2.707 3.281-3.037.564-.107 1.875-.067 2.428.071zm-7.512 1.336.011 1.311H14.12v11.835h-2.947V17.372H7.01v-1.285c0-.712.015-1.307.035-1.32.016-.021 2.551-.032 5.623-.027l5.593.016z"/>
    </symbol>
    <symbol id="css" viewBox="0 0 32 32">
      <path fill="currentColor" d="M2 0h28l-2.547 28.751L15.969 32l-11.42-3.251zm22.787 5.884L7.214 5.88l.284 3.496 13.5.003-.34 3.621h-8.853l.32 3.431h8.243l-.488 4.697L16 22.2l-3.941-1.08-.251-2.813h-3.48l.387 5.14 7.287 2.271 7.164-2.04z"/>
    </symbol>
    <symbol id="html" viewBox="0 0 32 32">
      <path fill="currentColor" d="M2 0h28l-2.547 28.751L15.969 32 4.55 28.749zm9.375 13-.309-3.624 13.412.004.307-3.496L7.217 5.88l.931 10.68h12.168l-.435 4.568-3.88 1.072-3.94-1.08-.251-2.813H8.331l.44 5.561L16 25.801l7.172-1.924.992-10.876z"/>
    </symbol>
    <symbol id="nextjs" viewBox="0 0 32 32">
      <path fill="currentColor" d="M23.751 30.003c-.119.063-.112.088.007.028a.305.305 0 0 0 .093-.063c0-.021-.003-.019-.1.035zm.237-.126c-.056.044-.056.047.012.012.037-.019.069-.04.069-.047 0-.025-.016-.019-.081.035zm.156-.094c-.056.044-.056.047.012.012.037-.019.069-.04.069-.047 0-.025-.016-.019-.081.035zm.156-.094c-.056.044-.056.047.012.012.037-.019.069-.04.069-.047 0-.025-.016-.019-.081.035zm.216-.14c-.109.069-.144.116-.047.063.069-.04.181-.125.163-.128a.613.613 0 0 0-.118.067l.002-.001zM14.952.008a29.2 29.2 0 0 1-.485.044C9.923.461 5.666 2.913 2.97 6.683a15.674 15.674 0 0 0-2.813 6.904l-.011.087c-.128.879-.144 1.139-.144 2.331s.016 1.451.144 2.331c.869 6.008 5.145 11.056 10.944 12.927a16.86 16.86 0 0 0 3.377.7c.485.053 2.58.053 3.065 0 2.148-.237 3.969-.769 5.764-1.685.275-.141.328-.179.291-.209-.312-.379-1.167-1.516-2.015-2.659l-.591-.834-2.559-3.456-3.205-4.744a258.747 258.747 0 0 0-4.18-6.183l.952 1.441c-.012-.003-.025 2.105-.031 4.679-.009 4.507-.012 4.688-.069 4.795a.579.579 0 0 1-.271.283l-.003.001c-.1.051-.188.06-.66.06h-.541l-.144-.091a.598.598 0 0 1-.208-.225l-.002-.003-.065-.141.007-6.271.009-6.273.097-.121a.84.84 0 0 1 .228-.188l.004-.002c.128-.063.179-.069.72-.069.639 0 .744.025.911.207-.11-.286 1.162 1.609 2.423 3.511l1.437 2.303c2.077 3.149 4.916 7.449 6.312 9.561l2.533 3.837.128-.084a16.563 16.563 0 0 0 3.27-2.865l.016-.019a15.84 15.84 0 0 0 3.755-8.091l.011-.088c.128-.879.144-1.139.144-2.331s-.016-1.451-.144-2.331C30.987 7.67 26.711 2.622 20.912.751A16.024 16.024 0 0 0 17.655.06l-.074-.006c-.3-.031-2.368-.065-2.629-.044zm6.549 9.677a.63.63 0 0 1 .315.365l.001.004c.025.081.031 1.82.025 5.739l-.009 5.624-.992-1.52-.995-1.52v-4.088c0-2.643.012-4.128.031-4.2a.65.65 0 0 1 .306-.393l.003-.002c.128-.065.175-.072.667-.072.463 0 .544.007.648.063z"/>
    </symbol>
    <symbol id="github" viewBox="0 0 32 32">
      <path fill="currentColor" d="M16 .396c-8.84 0-16 7.164-16 16 0 7.071 4.584 13.067 10.94 15.18.8.151 1.093-.344 1.093-.769 0-.38-.013-1.387-.02-2.72-4.451.965-5.389-2.147-5.389-2.147-.728-1.847-1.78-2.34-1.78-2.34-1.449-.992.112-.972.112-.972 1.607.112 2.451 1.648 2.451 1.648 1.427 2.447 3.745 1.74 4.66 1.331.144-1.035.556-1.74 1.013-2.14-3.553-.4-7.288-1.776-7.288-7.907 0-1.747.62-3.173 1.647-4.293-.18-.404-.72-2.031.14-4.235 0 0 1.34-.429 4.4 1.64 1.28-.356 2.64-.532 4-.54 1.36.008 2.72.184 4 .54 3.04-2.069 4.38-1.64 4.38-1.64.86 2.204.32 3.831.16 4.235 1.02 1.12 1.64 2.547 1.64 4.293 0 6.147-3.74 7.5-7.3 7.893.56.48 1.08 1.461 1.08 2.96 0 2.141-.02 3.861-.02 4.381 0 .42.28.92 1.1.76C27.42 29.455 32 23.455 32 16.395c0-8.836-7.164-16-16-16z"/>
    </symbol>
    <symbol id="hygraph" viewBox="213.333 0 582.058 1000">
      <path fill="currentColor" d="m678.974 133.331-116.408 66.671-116.408 66.661-116.417 66.67v400.004l116.417-66.67 116.408-66.671V466.665l-116.408 66.67V400.004l116.408-66.671 116.408-66.67v400.004l-116.408 66.67-116.408 66.661-116.417 66.671-116.408 66.661L329.741 1000l116.417-66.67 116.408-66.661 116.408-66.671 116.417-66.661V66.67L678.974 0z"/>
    </symbol>
    <symbol id="vercel" viewBox="0 0 512 512">
      <path fill="currentColor" d="m256 48 240 416H16Z"/>
    </symbol>
    <symbol id="astro" viewBox="0 0 1280 1280">
      <path fill="currentColor" d="M815.039 94.644c9.719 12.065 14.675 28.346 24.587 60.909l216.544 711.349c-80.063-41.534-167.098-71.489-258.889-87.65L656.29 302.798a18.351 18.351 0 0 0-35.21.055L481.795 779.011c-92.216 16.089-179.649 46.098-260.054 87.782l217.606-711.405h.001c9.943-32.506 14.914-48.759 24.634-60.803A79.994 79.994 0 0 1 496.4 70.6c14.36-5.772 31.356-5.772 65.349-5.772h155.425c34.038 0 51.056 0 65.429 5.784a79.997 79.997 0 0 1 32.436 24.032ZM840.951 900.754c-35.698 30.525-106.949 51.343-189.022 51.343-100.732 0-185.162-31.36-207.566-73.536-8.009 24.171-9.805 51.835-9.805 69.507 0 0-5.277 86.772 55.078 147.132 0-31.34 25.406-56.74 56.745-56.74 53.716 0 53.655 46.86 53.606 84.88l-.003 3.39c0 57.71 35.271 107.18 85.432 128.04-7.492-15.41-11.695-32.72-11.695-51 0-55.04 32.313-75.54 69.867-99.36 29.881-18.95 63.08-40 85.96-82.24 11.938-22.04 18.717-47.277 18.717-74.102 0-16.495-2.563-32.392-7.314-47.314Z"/>
    </symbol>
    <symbol id="cypress" viewBox="0 0 119 48">
      <path fill="currentColor" d="M.854 30.359A24.022 24.022 0 0 1 0 24C0 14.16 6.181 5.16 15.382 1.611l1.207 3.122C8.669 7.79 3.349 15.531 3.349 24.001c0 1.858.247 3.698.733 5.471l-3.228.887Z"/>
      <path fill="currentColor" d="M42.45 14.493A20.666 20.666 0 0 0 24.062 3.348c-2.75 0-5.422.53-7.938 1.57l-1.283-3.09A23.995 23.995 0 0 1 24.06 0c9.016 0 17.201 4.96 21.36 12.946l-2.97 1.547Z"/>
      <path fill="currentColor" d="M16.877 19.05c1.942 0 3.524 1.035 4.337 2.841l.064.142 3.262-1.108-.07-.167c-1.263-3.076-4.172-4.988-7.593-4.988-2.405 0-4.36.771-5.975 2.354-1.606 1.573-2.418 3.552-2.418 5.882 0 2.31.812 4.279 2.418 5.852 1.615 1.583 3.57 2.354 5.975 2.354 3.421 0 6.33-1.912 7.593-4.986l.07-.167-3.267-1.11-.062.147c-.728 1.775-2.348 2.837-4.334 2.837-1.353 0-2.495-.473-3.4-1.404-.916-.943-1.38-2.127-1.38-3.52 0-1.403.453-2.565 1.38-3.551.902-.936 2.047-1.409 3.4-1.409ZM57.07 18.127c-1.506-1.563-3.383-2.357-5.585-2.357-2.187 0-3.987.78-5.356 2.313v-2.01h-3.524V37.97h3.524V29.9c1.369 1.534 3.167 2.313 5.356 2.313 2.202 0 4.082-.795 5.587-2.36 1.481-1.572 2.23-3.538 2.23-5.846-.003-2.33-.751-4.306-2.233-5.88Zm-2.764 9.397c-.902.933-2.047 1.403-3.398 1.403-1.37 0-2.482-.46-3.4-1.403-.916-.943-1.379-2.127-1.379-3.52 0-1.434.45-2.596 1.379-3.552.916-.945 2.027-1.403 3.4-1.403 1.353 0 2.496.473 3.398 1.404.909.935 1.348 2.096 1.348 3.55 0 1.435-.442 2.586-1.348 3.521ZM65.038 17.96v-1.886h-3.524v15.832h3.524v-8.933c0-1.43.576-2.526 1.713-3.253 1.13-.722 2.485-.856 4.144-.403l.214.059v-3.387l-.131-.031c-2.228-.532-4.463.234-5.94 2.002ZM80.25 15.77c-2.322 0-4.293.792-5.856 2.354-1.585 1.583-2.388 3.562-2.388 5.882 0 2.31.813 4.279 2.418 5.852 1.616 1.583 3.57 2.354 5.976 2.354 3.259 0 6.06-1.655 7.496-4.428l.082-.16-2.981-1.32-.072.141c-.865 1.67-2.524 2.668-4.432 2.668-2.48 0-4.379-1.514-4.893-3.876h12.784l.016-.151c.278-2.555-.38-4.77-1.953-6.586-1.564-1.812-3.65-2.73-6.196-2.73Zm-4.545 6.64c.626-2.16 2.39-3.543 4.546-3.543 2.215 0 3.98 1.383 4.55 3.544h-9.096ZM97.815 22.495c-1.922-.36-3.581-.673-3.581-2.01 0-1.06 1.13-1.8 2.745-1.8 1.782 0 2.76.765 2.989 2.34l.025.178 3.524-.738-.025-.159c-.474-2.798-2.969-4.538-6.51-4.538-1.778 0-3.283.46-4.472 1.367-1.214.902-1.828 2.079-1.828 3.502 0 2.061 1.306 3.608 3.5 4.138.569.133 1.17.241 1.752.35 2.184.398 4.247.775 4.247 2.245 0 1.133-1.317 1.922-3.2 1.922-1.916 0-2.973-.765-3.233-2.343l-.029-.175-3.521.738.028.161c.512 2.84 3.036 4.536 6.753 4.536 1.888 0 3.506-.47 4.802-1.395 1.297-.915 1.952-2.095 1.952-3.506 0-3.7-3.279-4.317-5.918-4.813ZM113.081 22.495c-1.921-.36-3.58-.673-3.58-2.01 0-1.06 1.129-1.8 2.744-1.8 1.783 0 2.76.765 2.989 2.34l.026.178 3.524-.738-.026-.159c-.473-2.798-2.968-4.538-6.51-4.538-1.778 0-3.282.46-4.471 1.367-1.214.902-1.829 2.079-1.829 3.502 0 2.061 1.307 3.608 3.501 4.138.569.133 1.171.241 1.752.35 2.184.398 4.247.775 4.247 2.245 0 1.133-1.317 1.922-3.2 1.922-1.917 0-2.974-.765-3.234-2.343l-.028-.175-3.521.738.028.161c.512 2.84 3.035 4.536 6.752 4.536 1.888 0 3.506-.47 4.803-1.395 1.296-.915 1.952-2.095 1.952-3.506 0-3.7-3.28-4.317-5.919-4.813Z"/>
      <path fill="currentColor" d="m37.306 16.074-4.648 11.761-4.679-11.761h-3.828l6.562 16.053-4.668 11.322 3.346.666 11.532-28.041h-3.617Z"/>
      <path fill="currentColor" d="m26.643 41.99-.815 1.973c-.162.39-.532.655-.95.673-.274.01-.552.018-.833.018-9.597-.005-18.088-6.771-20.192-16.094l-3.267.738c1.18 5.229 4.144 9.975 8.345 13.367A24.15 24.15 0 0 0 24.009 48h.05c.32 0 .64-.008.959-.02a4.443 4.443 0 0 0 3.91-2.745l1.064-2.58-3.349-.666Z"/>
    </symbol>
  </defs>
</svg>
