<?xml version="1.0" encoding="UTF-8" standalone="no"?>
<svg
   height="884.86139"
   preserveAspectRatio="xMidYMid"
   width="801.21179"
   viewBox="-165.83095 -227.12219 182.72981 282.234"
   version="1.1"
   id="svg6"
   sodipodi:docname="jest.svg"
   inkscape:version="1.1.1 (3bf5ae0d25, 2021-09-20)"
   xmlns:inkscape="http://www.inkscape.org/namespaces/inkscape"
   xmlns:sodipodi="http://sodipodi.sourceforge.net/DTD/sodipodi-0.dtd"
   xmlns="http://www.w3.org/2000/svg"
   xmlns:svg="http://www.w3.org/2000/svg">
  <defs
     id="defs10" />
  <sodipodi:namedview
     id="namedview8"
     pagecolor="#ffffff"
     bordercolor="#666666"
     borderopacity="1.0"
     inkscape:pageshadow="2"
     inkscape:pageopacity="0.0"
     inkscape:pagecheckerboard="0"
     showgrid="false"
     inkscape:zoom="0.3104"
     inkscape:cx="971.32732"
     inkscape:cy="538.01546"
     inkscape:window-width="1920"
     inkscape:window-height="1011"
     inkscape:window-x="0"
     inkscape:window-y="0"
     inkscape:window-maximized="1"
     inkscape:current-layer="svg6" />
  <path
     d="m 38.70881,-88.740203 c 0,-14.507997 -11.762,-26.269997 -26.27,-26.269997 -0.934,0 -1.854,0.05 -2.7619997,0.146 l 36.0819997,-106.42 h -153.336 l 36.032,106.327 a 26.318,26.318 0 0 0 -1.597,-0.052 c -14.508,0 -26.27,11.76 -26.27,26.269997 0,11.727 7.686,21.656 18.293,25.034 -5.602,9.704 -12.652,18.445 -20.656,25.997 -10.884,10.267 -23.34,18.053 -36.812,22.85 -16.04,-8.24 -23.614,-26.565 -16.78,-42.632 0.772,-1.815 1.56,-3.654 2.313,-5.485 11.62,-2.712 20.28,-13.129 20.28,-25.576 0,-14.508997 -11.762,-26.269997 -26.271,-26.269997 -14.509,0 -26.27,11.761 -26.27,26.269997 0,8.897 4.426,16.756 11.193,21.508 -6.502,14.804 -16.06,30.298 -19.038,48.255 -3.569,21.5199993 -0.012,44.364 18.601,57.265 43.348,30.044 90.402,-18.625 140.014,-30.8600007 17.98,-4.433 37.7170003,-3.719 53.558,-12.893 11.896,-6.8899993 19.739,-18.3089993 21.964,-31.1279993 2.2,-12.664 -1.006,-25.273 -8.378,-35.497 a 26.158,26.158 0 0 0 6.11,-16.839"
     fill="#99425b"
     id="path2" />
  <path
     d="m 34.65581,-37.502203 c -1.932,11.13 -8.806,20.851 -18.858,26.674 -9.3709997,5.4269993 -20.5999997,7.0469993 -32.49,8.7609993 -6.369,0.918 -12.955,1.869 -19.389,3.455 -17.012,4.195 -33.49,12.3800007 -49.424,20.2950007 -31.89,15.84 -59.43,29.518 -85.398,11.52 -19.022,-13.183 -18.144,-37.5750007 -15.928,-50.941 2.054,-12.384 7.607,-23.789 12.976,-34.818 a 796.621,796.621 0 0 0 2.722,-5.634 32.453,32.453 0 0 0 8.443,2.118 c -5.466,18.039 3.13,37.653 21.171,46.9209993 l 2.47,1.269 2.614,-0.931 c 14.263,-5.0799993 27.406,-13.2299993 39.063,-24.2289993 7.535,-7.109 14.014,-14.974 19.339,-23.378 a 32.8,32.8 0 0 0 4.891,0.367 c 16.559,0 30.271,-12.379 32.393,-28.367 6.778,-0.248 13.977,-0.25 20.794,-0.002 2.12,15.99 15.8340003,28.37 32.393,28.37 6.924,0 13.346,-2.17 18.637,-5.856 3.673,7.519 5.044,15.979 3.581,24.406 z m -193.7,-70.902997 c 10.948,0 19.854,8.906997 19.854,19.854997 0,3.932 -1.154,7.599 -3.135,10.687 -3.3,5.147 -8.91,8.675 -15.355,9.115 -0.451,0.03 -0.906,0.052 -1.364,0.052 -2.44,0 -4.777,-0.445 -6.938,-1.253 a 19.967,19.967 0 0 1 -10.305,-8.777 19.725,19.725 0 0 1 -2.612,-9.824 c 0,-10.948 8.907,-19.854997 19.855,-19.854997 z m 66.049,19.665997 c 0,-9.947 7.353,-18.205997 16.907,-19.633997 0.962,-0.145 1.946,-0.22 2.947,-0.22 6.365,0 12.032,3.015 15.666,7.687 a 19.88,19.88 0 0 1 2.318,3.764997 19.73,19.73 0 0 1 1.87,8.402 c 0,1.587 -0.192,3.13 -0.545,4.61 -1.935,8.1 -8.842,14.292 -17.306,15.144 -0.658,0.066 -1.326,0.1 -2.003,0.1 a 19.734,19.734 0 0 1 -10.76,-3.181 c -5.466,-3.541 -9.094,-9.69 -9.094,-16.673 z m 82.865,-23.609997 a 32.721,32.721 0 0 0 -8.991,15.116997 304.792,304.792 0 0 0 -22.458,0 c -1.68,-6.231997 -5.162,-11.729997 -9.847,-15.905997 l 20.545,-41.542 z m -88.498,-102.517 h 135.437 l -31.9889997,94.345 a 32.479,32.479 0 0 0 -4.05099999,1.255 l -31.60000031,-64.463 -31.69,64.078 a 32.502,32.502 0 0 0 -4.226,-1.139 z m 130.92,126.127997 c 0,1.99 -0.297,3.912 -0.844,5.727 a 19.933,19.933 0 0 1 -7.653,10.545 19.74,19.74 0 0 1 -11.357,3.582 c -9.1669997,0 -16.8999997,-6.247 -19.1739997,-14.707 a 19.803,19.803 0 0 1 -0.68,-5.147 c 0,-2.714 0.548,-5.302 1.538,-7.66 a 19.848,19.848 0 0 1 1.878,-3.442 c 3.57300001,-5.273997 9.602,-8.751997 16.4379997,-8.751997 0.627,0 1.245,0.032 1.858,0.09 10.08,0.939 17.997,9.441997 17.997,19.763997 z m 12.833,0 c 0,-15.957997 -11.498,-29.272997 -26.642,-32.116997 l 36.226,-106.845 h -171.235 l 36.282,107.061 c -14.618,3.253 -25.583,16.316 -25.583,31.899997 0,11.702 6.184,21.98 15.452,27.756 -4.458,6.642 -9.744,12.892 -15.802,18.608 -9.608,9.063 -20.311,15.937 -31.85,20.46 -11.623,-7.301 -16.536,-21.07 -11.434,-33.064 l 0.4,-0.94 0.75,-1.764 c 12.766,-4.453 21.953,-16.603 21.953,-30.867 0,-18.023997 -14.663,-32.686997 -32.686,-32.686997 -18.023,0 -32.688,14.663 -32.688,32.686997 0,9.097 3.74,17.335 9.758,23.267 a 552.73,552.73 0 0 1 -3.418,7.11 c -5.503,11.301 -11.739,24.11 -14.098,38.335 -4.684,28.2499993 2.872,50.833 21.277,63.588 11.168,7.74 22.51,10.784 33.923,10.784 21.49,0 43.23,-10.797 64.493,-21.359 15.313,-7.605 31.148,-15.47 46.789,-19.328 5.82,-1.435 11.808,-2.299 18.148,-3.213 12.5730003,-1.8140007 25.573,-3.6890007 37.089,-10.3580007 13.349,-7.732 22.486,-20.7019993 25.07,-35.5819993 2.218,-12.775 -0.451,-25.57 -6.961,-36.422 a 32.488,32.488 0 0 0 4.787,-17.011 z"
     fill="#ffffff"
     id="path4" />
</svg>
