<?xml version="1.0" encoding="UTF-8" standalone="no"?>
<svg
   height="2050"
   viewBox="8.738 -5.0362283 14.317137 32.313083"
   width="2050"
   version="1.1"
   id="svg8"
   sodipodi:docname="mongodb.svg"
   inkscape:version="1.1.1 (3bf5ae0d25, 2021-09-20)"
   xmlns:inkscape="http://www.inkscape.org/namespaces/inkscape"
   xmlns:sodipodi="http://sodipodi.sourceforge.net/DTD/sodipodi-0.dtd"
   xmlns="http://www.w3.org/2000/svg"
   xmlns:svg="http://www.w3.org/2000/svg">
  <defs
     id="defs12" />
  <sodipodi:namedview
     id="namedview10"
     pagecolor="#ffffff"
     bordercolor="#666666"
     borderopacity="1.0"
     inkscape:pageshadow="2"
     inkscape:pageopacity="0.0"
     inkscape:pagecheckerboard="0"
     showgrid="false"
     width="2501px"
     inkscape:zoom="0.15603115"
     inkscape:cx="810.73556"
     inkscape:cy="1185.6607"
     inkscape:window-width="1920"
     inkscape:window-height="1011"
     inkscape:window-x="0"
     inkscape:window-y="0"
     inkscape:window-maximized="1"
     inkscape:current-layer="svg8" />
  <path
     d="m 15.696379,-4.8058277 0.854,1.604 c 0.192,0.296 0.4,0.558 0.645,0.802 a 22.406,22.406 0 0 1 2.004,2.26599999 c 1.447,1.90000001 2.423,4.01000001 3.12,6.29200001 0.418,1.394 0.645,2.8239995 0.662,4.2699997 0.07,4.323 -1.412,8.035 -4.4,11.12 a 12.7,12.7 0 0 1 -1.57,1.342 c -0.296,0 -0.436,-0.227 -0.558,-0.436 a 3.589,3.589 0 0 1 -0.436,-1.255 c -0.105,-0.523 -0.174,-1.046 -0.14,-1.586 v -0.244 c -0.024,-0.052 -0.285,-24.0519997 -0.181,-24.1749997 z"
     fill="#599636"
     id="path2" />
  <path
     d="m 15.696379,-4.8588277 c -0.035,-0.07 -0.07,-0.017 -0.105,0.017 0.017,0.35 -0.105,0.662 -0.296,0.96 -0.21,0.296 -0.488,0.523 -0.767,0.767 -1.55,1.342 -2.77,2.96299999 -3.747,4.776 -1.3000001,2.44 -1.9700002,5.055 -2.1600002,7.8079995 -0.087,0.9930002 0.314,4.4970002 0.627,5.5080002 0.8540002,2.684 2.3880002,4.933 4.3750002,6.885 0.488,0.47 1.01,0.906 1.55,1.325 0.157,0 0.174,-0.14 0.21,-0.244 a 4.78,4.78 0 0 0 0.157,-0.68 l 0.35,-2.614 z"
     fill="#6cac48"
     id="path4" />
  <path
     d="m 16.550379,23.952172 c 0.035,-0.4 0.227,-0.732 0.436,-1.063 -0.21,-0.087 -0.366,-0.26 -0.488,-0.453 a 3.235,3.235 0 0 1 -0.26,-0.575 c -0.244,-0.732 -0.296,-1.5 -0.366,-2.248 v -0.453 c -0.087,0.07 -0.105,0.662 -0.105,0.75 a 17.37,17.37 0 0 1 -0.314,2.353 c -0.052,0.314 -0.087,0.627 -0.28,0.906 0,0.035 0,0.07 0.017,0.122 0.314,0.924 0.4,1.865 0.453,2.824 v 0.35 c 0,0.418 -0.017,0.33 0.33,0.47 0.14,0.052 0.296,0.07 0.436,0.174 0.105,0 0.122,-0.087 0.122,-0.157 l -0.052,-0.575 v -1.604 c -0.017,-0.28 0.035,-0.558 0.07,-0.82 z"
     fill="#c2bfbf"
     id="path6" />
</svg>
