<?xml version="1.0" encoding="UTF-8" standalone="no"?>
<svg
   xmlns:dc="http://purl.org/dc/elements/1.1/"
   xmlns:cc="http://creativecommons.org/ns#"
   xmlns:rdf="http://www.w3.org/1999/02/22-rdf-syntax-ns#"
   xmlns:svg="http://www.w3.org/2000/svg"
   xmlns="http://www.w3.org/2000/svg"
   xml:space="preserve"
   style="enable-background:new 0 0 512.009 512.009;"
   viewBox="0 0 512.009 512.009"
   y="0px"
   x="0px"
   id="Capa_1"
   version="1.1"><metadata
   id="metadata97"><rdf:RDF><cc:Work
       rdf:about=""><dc:format>image/svg+xml</dc:format><dc:type
         rdf:resource="http://purl.org/dc/dcmitype/StillImage" /><dc:title></dc:title></cc:Work></rdf:RDF></metadata><defs
   id="defs95" />
<g
   id="g6">
	<g
   id="g4">
		<path
   id="path2"
   d="M158.897,114.763C79.934,114.763,0,132.957,0,167.729s79.934,52.966,158.897,52.966s158.897-18.194,158.897-52.966    S237.859,114.763,158.897,114.763z M158.897,203.039c-92.734,0-141.241-22.987-141.241-35.31s48.508-35.31,141.241-35.31    s141.241,22.987,141.241,35.31S251.63,203.039,158.897,203.039z" />
	</g>
</g>
<g
   id="g12">
	<g
   id="g10">
		<path
   id="path8"
   d="M308.966,158.901c-4.873,0-8.828,3.946-8.828,8.828c0,12.323-48.508,35.31-141.241,35.31s-141.241-22.987-141.241-35.31    c0-4.882-3.955-8.828-8.828-8.828c-4.873,0-8.828,3.946-8.828,8.828v70.621c0,34.772,79.934,52.966,158.897,52.966    s158.897-18.194,158.897-52.966v-70.621C317.793,162.847,313.838,158.901,308.966,158.901z M300.138,238.349    c0,12.323-48.508,35.31-141.241,35.31s-141.241-22.987-141.241-35.31v-44.941c55.79,35.999,226.684,35.999,282.483,0V238.349z" />
	</g>
</g>
<g
   id="g18">
	<g
   id="g16">
		<path
   id="path14"
   d="M308.966,229.522c-4.873,0-8.828,3.946-8.828,8.828c0,12.323-48.508,35.31-141.241,35.31s-141.241-22.987-141.241-35.31    c0-4.882-3.955-8.828-8.828-8.828c-4.873,0-8.828,3.946-8.828,8.828v70.621c0,34.772,79.934,52.966,158.897,52.966    s158.897-18.194,158.897-52.966v-70.621C317.793,233.468,313.838,229.522,308.966,229.522z M300.138,308.97    c0,12.323-48.508,35.31-141.241,35.31S17.655,321.293,17.655,308.97v-44.941c55.79,35.999,226.684,35.999,282.483,0V308.97z" />
	</g>
</g>
<g
   id="g24">
	<g
   id="g22">
		<path
   id="path20"
   d="M308.966,300.142c-4.873,0-8.828,3.946-8.828,8.828c0,12.323-48.508,35.31-141.241,35.31S17.655,321.293,17.655,308.97    c0-4.882-3.955-8.828-8.828-8.828c-4.873,0-8.828,3.946-8.828,8.828v70.621c0,34.772,79.934,52.966,158.897,52.966    s158.897-18.194,158.897-52.966V308.97C317.793,304.088,313.838,300.142,308.966,300.142z M300.138,379.591    c0,12.323-48.508,35.31-141.241,35.31s-141.241-22.987-141.241-35.31v-44.941c55.79,35.999,226.684,35.999,282.483,0V379.591z" />
	</g>
</g>
<g
   id="g30">
	<g
   id="g28">
		<path
   id="path26"
   d="M308.966,370.763c-4.873,0-8.828,3.946-8.828,8.828c0,12.323-48.508,35.31-141.241,35.31s-141.241-22.987-141.241-35.31    c0-4.882-3.955-8.828-8.828-8.828c-4.873,0-8.828,3.946-8.828,8.828v70.621c0,34.772,79.934,52.966,158.897,52.966    s158.897-18.194,158.897-52.966v-70.621C317.793,374.709,313.838,370.763,308.966,370.763z M300.138,450.211    c0,12.323-48.508,35.31-141.241,35.31s-141.241-22.987-141.241-35.31V405.27c55.79,35.999,226.684,35.999,282.483,0V450.211z" />
	</g>
</g>
<g
   id="g36">
	<g
   id="g34">
		<path
   id="path32"
   d="M353.103,8.832c-78.963,0-158.897,18.194-158.897,52.966s79.934,52.966,158.897,52.966S512,96.569,512,61.797    S432.066,8.832,353.103,8.832z M353.103,97.108c-92.734,0-141.241-22.987-141.241-35.31s48.508-35.31,141.241-35.31    s141.241,22.987,141.241,35.31S445.837,97.108,353.103,97.108z" />
	</g>
</g>
<g
   id="g42">
	<g
   id="g40">
		<path
   id="path38"
   d="M503.172,52.97c-4.873,0-8.828,3.946-8.828,8.828c0,12.323-48.508,35.31-141.241,35.31s-141.241-22.987-141.241-35.31    c0-4.882-3.955-8.828-8.828-8.828c-4.873,0-8.828,3.946-8.828,8.828v63.744c0,4.564,3.487,8.377,8.033,8.792    c66.789,6.029,97.898,23.49,97.898,33.395c0,0.318-0.124,1.086-0.918,2.631c-1.351,2.595-1.315,5.703,0.088,8.28    c1.404,2.578,3.999,4.29,6.921,4.564c15.21,1.448,30.976,2.18,46.875,2.18c78.963,0,158.897-18.194,158.897-52.966V61.797    C512,56.916,508.045,52.97,503.172,52.97z M494.345,132.418c0,12.323-48.508,35.31-141.241,35.31    c-11.926,0-23.773-0.424-35.346-1.271c-1.554-27.745-54.051-43.229-105.896-48.914V87.477c55.79,35.999,226.692,35.999,282.483,0    V132.418z" />
	</g>
</g>
<g
   id="g48">
	<g
   id="g46">
		<path
   id="path44"
   d="M503.181,194.202c-4.873,0-8.828,3.946-8.828,8.828c0,12.323-48.508,35.31-141.241,35.31    c-14.389,0-28.972-0.671-43.343-1.969c-2.472-0.238-4.917,0.609-6.753,2.278c-1.836,1.668-2.878,4.034-2.878,6.515v63.797    c0,0.318-0.124,1.086-0.909,2.622c-1.342,2.604-1.306,5.703,0.097,8.28c1.404,2.569,3.99,4.281,6.912,4.555    c15.395,1.465,31.153,2.207,46.866,2.207c78.963,0,158.897-18.194,158.905-52.974V203.03    C512.009,198.148,508.054,194.202,503.181,194.202z M494.345,273.66c0,12.323-48.508,35.31-141.241,35.31    c-11.802,0-23.64-0.424-35.31-1.289v-52.939c11.758,0.839,23.596,1.262,35.31,1.262c56.426,0,113.346-9.287,141.241-27.286V273.66    z" />
	</g>
</g>
<g
   id="g54">
	<g
   id="g52">
		<path
   id="path50"
   d="M503.181,264.823c-4.873,0-8.828,3.946-8.828,8.828c0,12.323-48.508,35.31-141.241,35.31    c-14.389,0-28.972-0.671-43.343-1.969c-2.472-0.247-4.917,0.609-6.753,2.278c-1.836,1.668-2.878,4.034-2.878,6.515v63.797    c0,0.318-0.124,1.086-0.909,2.622c-1.342,2.604-1.306,5.703,0.097,8.28c1.404,2.569,3.99,4.281,6.912,4.555    c15.395,1.465,31.153,2.207,46.866,2.207c78.963,0,158.897-18.194,158.905-52.974v-70.621    C512.009,268.769,508.054,264.823,503.181,264.823z M494.345,344.28c0,12.323-48.508,35.31-141.241,35.31    c-11.802,0-23.64-0.424-35.31-1.289v-52.939c11.758,0.839,23.596,1.262,35.31,1.262c56.426,0,113.346-9.287,141.241-27.286V344.28    z" />
	</g>
</g>
<g
   id="g60">
	<g
   id="g58">
		<path
   id="path56"
   d="M503.181,123.582c-4.873,0-8.828,3.946-8.828,8.828c0,12.323-48.508,35.31-141.241,35.31    c-14.389,0-28.972-0.671-43.343-1.969c-2.472-0.23-4.917,0.609-6.753,2.278c-1.836,1.668-2.878,4.034-2.878,6.515v63.797    c0,0.318-0.124,1.086-0.909,2.622c-1.342,2.604-1.306,5.703,0.097,8.28c1.404,2.569,3.99,4.281,6.912,4.555    c15.395,1.465,31.153,2.207,46.866,2.207c78.963,0,158.897-18.194,158.905-52.974v-70.621    C512.009,127.528,508.054,123.582,503.181,123.582z M494.345,203.039c0,12.323-48.508,35.31-141.241,35.31    c-11.802,0-23.64-0.424-35.31-1.289v-52.939c11.758,0.839,23.596,1.262,35.31,1.262c56.426,0,113.346-9.287,141.241-27.286    V203.039z" />
	</g>
</g>
</svg>