<?xml version="1.0" encoding="UTF-8" standalone="no"?>
<svg
   xmlns:dc="http://purl.org/dc/elements/1.1/"
   xmlns:cc="http://creativecommons.org/ns#"
   xmlns:rdf="http://www.w3.org/1999/02/22-rdf-syntax-ns#"
   xmlns:svg="http://www.w3.org/2000/svg"
   xmlns="http://www.w3.org/2000/svg"
   xml:space="preserve"
   style="enable-background:new 0 0 512 512;"
   viewBox="0 0 512 512"
   y="0px"
   x="0px"
   id="Capa_1"
   version="1.1"><metadata
   id="metadata79"><rdf:RDF><cc:Work
       rdf:about=""><dc:format>image/svg+xml</dc:format><dc:type
         rdf:resource="http://purl.org/dc/dcmitype/StillImage" /><dc:title></dc:title></cc:Work></rdf:RDF></metadata><defs
   id="defs77" />
<g
   id="g6">
	<g
   id="g4">
		<path
   id="path2"
   d="M503.467,42.667H199.356L150.528,1.98C148.992,0.7,147.063,0,145.067,0H8.533C3.823,0,0,3.823,0,8.533v102.4    c0,4.71,3.823,8.533,8.533,8.533h494.933c4.71,0,8.533-3.823,8.533-8.533V51.2C512,46.49,508.177,42.667,503.467,42.667z     M494.933,102.4H17.067V17.067h124.911l48.828,40.687c1.536,1.28,3.465,1.98,5.461,1.98h298.667V102.4z" />
	</g>
</g>
<g
   id="g12">
	<g
   id="g10">
		<path
   id="path8"
   d="M503.467,102.4H8.533c-4.71,0-8.533,3.823-8.533,8.533V480.41C0,497.826,14.174,512,31.59,512H480.41    c17.417,0,31.59-14.174,31.59-31.59V110.933C512,106.223,508.177,102.4,503.467,102.4z M494.933,480.41    c0,8.004-6.519,14.524-14.524,14.524H31.59c-8.004,0-14.524-6.519-14.524-14.524V119.467h477.867V480.41z" />
	</g>
</g>
<g
   id="g18">
	<g
   id="g16">
		<path
   id="path14"
   d="M418.133,273.067h-19.567c-5.137,0-9.677-3.234-11.042-7.893c-2.347-7.953-5.41-13.397-8.653-19.149l-2.415-4.343    c-2.338-4.284-1.434-9.813,2.193-13.44l13.85-13.85c3.337-3.337,3.337-8.73,0-12.066l-31.625-31.625    c-3.337-3.337-8.73-3.337-12.066,0l-13.85,13.85c-3.627,3.627-9.156,4.531-13.449,2.193l-4.369-2.432    c-5.751-3.234-11.179-6.298-19.132-8.636c-4.642-1.357-7.876-5.896-7.876-11.042v-19.567c0-4.71-3.823-8.533-8.533-8.533h-51.2    c-4.71,0-8.533,3.823-8.533,8.533v19.567c0,5.146-3.234,9.685-7.876,11.051c-7.953,2.338-13.38,5.402-19.132,8.636l-4.369,2.432    c-4.292,2.338-9.813,1.434-13.448-2.193l-13.85-13.85c-3.337-3.337-8.738-3.337-12.066,0l-31.625,31.625    c-3.328,3.337-3.328,8.73,0,12.066l13.85,13.85c3.627,3.627,4.531,9.156,2.193,13.44l-2.415,4.343    c-3.243,5.76-6.306,11.196-8.653,19.157c-1.365,4.642-5.905,7.876-11.042,7.876H93.867c-4.71,0-8.533,3.823-8.533,8.533v51.2    c0,4.71,3.823,8.533,8.533,8.533h19.567c5.137,0,9.677,3.234,11.042,7.893c2.338,7.953,5.402,13.389,8.644,19.14l2.423,4.352    c2.338,4.284,1.434,9.813-2.193,13.44l-13.85,13.85c-3.336,3.337-3.336,8.73,0,12.066l31.625,31.625    c3.336,3.337,8.73,3.337,12.066,0l13.85-13.85c3.635-3.627,9.156-4.54,13.449-2.193l4.361,2.423    c5.751,3.243,11.187,6.306,19.14,8.644c4.642,1.357,7.876,5.897,7.876,11.042v19.567c0,4.71,3.823,8.533,8.533,8.533h51.2    c4.71,0,8.533-3.823,8.533-8.533v-19.567c0-5.146,3.234-9.685,7.876-11.042c7.953-2.347,13.389-5.402,19.14-8.644l4.36-2.432    c4.292-2.338,9.822-1.434,13.449,2.193l13.85,13.85c3.337,3.336,8.738,3.336,12.066,0l31.625-31.625    c3.328-3.337,3.328-8.73,0-12.066l-13.85-13.85c-3.627-3.627-4.531-9.156-2.193-13.44l2.423-4.352    c3.243-5.76,6.306-11.187,8.644-19.149c1.365-4.642,5.905-7.876,11.042-7.876h19.567c4.71,0,8.533-3.823,8.533-8.533v-51.2    C426.667,276.89,422.844,273.067,418.133,273.067z M409.6,324.267h-11.034c-12.655,0-23.927,8.277-27.418,20.139    c-1.792,6.093-4.036,10.078-7.142,15.59l-2.543,4.565c-5.931,10.88-3.831,24.73,5.111,33.673l7.817,7.817l-19.558,19.558    l-7.817-7.817c-8.934-8.943-22.784-11.042-33.672-5.12l-4.574,2.543c-5.513,3.098-9.498,5.342-15.582,7.134    c-11.844,3.482-20.122,14.763-20.122,27.418V460.8h-34.133v-11.034c0-12.655-8.277-23.936-20.122-27.426    c-6.093-1.792-10.069-4.028-15.582-7.134l-4.574-2.543c-10.88-5.931-24.73-3.831-33.673,5.111l-7.817,7.817l-19.558-19.558    l7.817-7.817c8.943-8.943,11.042-22.792,5.112-33.673l-2.543-4.565c-3.106-5.521-5.35-9.506-7.142-15.59    c-3.49-11.844-14.763-20.122-27.418-20.122H102.4v-34.133h11.034c12.655,0,23.927-8.277,27.418-20.13    c1.801-6.101,4.045-10.086,7.151-15.599l2.534-4.557c5.931-10.889,3.831-24.73-5.112-33.673l-7.817-7.817l19.558-19.558    l7.817,7.817c8.943,8.943,22.793,11.042,33.673,5.12l4.582-2.551c5.513-3.106,9.489-5.35,15.573-7.134    c11.844-3.482,20.122-14.763,20.122-27.418V153.6h34.133v11.034c0,12.655,8.277,23.936,20.122,27.435    c6.084,1.792,10.069,4.028,15.573,7.134l4.582,2.543c10.88,5.931,24.73,3.831,33.673-5.111l7.817-7.817l19.558,19.558    l-7.817,7.817c-8.934,8.943-11.042,22.784-5.112,33.673l2.534,4.557c3.106,5.513,5.359,9.498,7.151,15.59    c3.49,11.844,14.763,20.122,27.418,20.122H409.6V324.267z" />
	</g>
</g>
<g
   id="g24">
	<g
   id="g22">
		<path
   id="path20"
   d="M256,204.8c-56.465,0-102.4,45.935-102.4,102.4S199.535,409.6,256,409.6s102.4-45.935,102.4-102.4    S312.465,204.8,256,204.8z M256,392.533c-47.053,0-85.333-38.281-85.333-85.333s38.281-85.333,85.333-85.333    s85.333,38.281,85.333,85.333S303.053,392.533,256,392.533z" />
	</g>
</g>
<g
   id="g30">
	<g
   id="g28">
		<path
   id="path26"
   d="M208.333,307.2l19.567-19.567c3.337-3.337,3.337-8.73,0-12.066c-3.328-3.337-8.738-3.337-12.066,0l-25.6,25.6    c-3.337,3.337-3.337,8.73,0,12.066l25.6,25.6c1.664,1.664,3.849,2.5,6.033,2.5c2.185,0,4.369-0.836,6.033-2.5    c3.337-3.337,3.337-8.73,0-12.066L208.333,307.2z" />
	</g>
</g>
<g
   id="g36">
	<g
   id="g34">
		<path
   id="path32"
   d="M321.766,301.167l-25.6-25.6c-3.328-3.337-8.738-3.337-12.066,0c-3.337,3.337-3.337,8.73,0,12.066l19.567,19.567    L284.1,326.767c-3.337,3.337-3.337,8.73,0,12.066c1.664,1.664,3.849,2.5,6.033,2.5c2.185,0,4.369-0.836,6.033-2.5l25.6-25.6    C325.103,309.897,325.103,304.503,321.766,301.167z" />
	</g>
</g>
<g
   id="g42">
	<g
   id="g40">
		<path
   id="path38"
   d="M266.871,264.858c-4.531-1.289-9.25,1.331-10.547,5.862l-17.067,59.733c-1.297,4.531,1.331,9.25,5.862,10.547    c0.785,0.222,1.57,0.333,2.347,0.333c3.721,0,7.134-2.441,8.201-6.195l17.067-59.733    C274.031,270.874,271.403,266.146,266.871,264.858z" />
	</g>
</g>
<g
   id="g44">
</g>
<g
   id="g46">
</g>
<g
   id="g48">
</g>
<g
   id="g50">
</g>
<g
   id="g52">
</g>
<g
   id="g54">
</g>
<g
   id="g56">
</g>
<g
   id="g58">
</g>
<g
   id="g60">
</g>
<g
   id="g62">
</g>
<g
   id="g64">
</g>
<g
   id="g66">
</g>
<g
   id="g68">
</g>
<g
   id="g70">
</g>
<g
   id="g72">
</g>
</svg>