<?xml version="1.0" encoding="UTF-8" standalone="no"?>
<svg
   xmlns:dc="http://purl.org/dc/elements/1.1/"
   xmlns:cc="http://creativecommons.org/ns#"
   xmlns:rdf="http://www.w3.org/1999/02/22-rdf-syntax-ns#"
   xmlns:svg="http://www.w3.org/2000/svg"
   xmlns="http://www.w3.org/2000/svg"
   xmlns:xlink="http://www.w3.org/1999/xlink"
   id="svg8"
   version="1.1"
   viewBox="0 0 699.12549 597.61285"
   height="597.61285"
   width="699.12549">
  <defs
     id="defs2">
    <linearGradient
       id="linearGradient1714">
      <stop
         style="stop-color:#f77062;stop-opacity:1"
         offset="0"
         id="stop1710" />
      <stop
         style="stop-color:#fe5196;stop-opacity:1"
         offset="1"
         id="stop1712" />
    </linearGradient>
    <linearGradient
       id="linearGradient841">
      <stop
         id="stop837"
         offset="0"
         style="stop-color:#f77062;stop-opacity:1" />
      <stop
         id="stop839"
         offset="1"
         style="stop-color:#fe5196;stop-opacity:1" />
    </linearGradient>
    <linearGradient
       gradientUnits="userSpaceOnUse"
       y2="122.66975"
       x2="800.46082"
       y1="485.6633"
       x1="109.27504"
       id="linearGradient843"
       xlink:href="#linearGradient1714" />
    <linearGradient
       gradientUnits="userSpaceOnUse"
       y2="122.66975"
       x2="800.46082"
       y1="485.6633"
       x1="109.27504"
       id="linearGradient881"
       xlink:href="#linearGradient841" />
    <clipPath
       id="clipPath1720"
       clipPathUnits="userSpaceOnUse">
      <rect
         ry="0"
         y="112.15332"
         x="3.0587208e-07"
         height="597.61285"
         width="699.02551"
         id="rect1722"
         style="opacity:0;fill:#fe5196;fill-opacity:1;stroke:#ffffff;stroke-width:0;stroke-miterlimit:4;stroke-dasharray:none;stroke-opacity:1" />
    </clipPath>
    <clipPath
       id="clipPath1724"
       clipPathUnits="userSpaceOnUse">
      <rect
         d="M 108.67495,115.07491 H 807.71334 V 741.08688 H 108.67495 Z"
         transform="matrix(0.9999816,0.00606546,0,1,0,0)"
         ry="0"
         y="115.07491"
         x="108.67495"
         height="626.01196"
         width="699.03839"
         id="rect1726"
         style="opacity:0;fill:#fe5196;fill-opacity:1;stroke:#ffffff;stroke-width:0;stroke-miterlimit:4;stroke-dasharray:none;stroke-opacity:1" />
    </clipPath>
  </defs>
  <metadata
     id="metadata5">
    <rdf:RDF>
      <cc:Work
         rdf:about="">
        <dc:format>image/svg+xml</dc:format>
        <dc:type
           rdf:resource="http://purl.org/dc/dcmitype/StillImage" />
        <dc:title></dc:title>
      </cc:Work>
    </rdf:RDF>
  </metadata>
  <g
     transform="translate(0.09999997,-112.15333)"
     id="layer1">
    <path
       clip-path="url(#clipPath1724)"
       transform="matrix(1,-0.00579041,0,0.95463484,-108.67295,2.2988085)"
       id="path817"
       d="m -59.999484,705.82213 c 52.3810106,20.22076 114.76196,41.61466 176.428884,25.27966 61.66693,-16.33501 122.61927,-70.39773 158.57119,-148.03541 35.95192,-77.63768 46.90429,-178.84993 122.36904,-237.15077 75.46475,-58.30083 215.44074,-73.6911 294.01185,-105.82323 78.5711,-32.13213 95.73788,-81.00496 105.27354,-110.89301 9.53567,-29.888063 11.44042,-40.7913 -42.60705,-66.242276 C 700.0005,37.506118 590.00056,-2.493858 430.95295,-13.68446 271.90535,-24.875063 63.810601,-7.2560576 -49.048708,107.76362 -161.90802,222.7833 -179.52372,435.1239 -167.14248,550.83888 c 12.38125,115.71498 54.76199,134.7625 107.142996,154.98325 z"
       style="fill:url(#linearGradient881);fill-opacity:1;stroke:url(#linearGradient843);stroke-width:0;stroke-linecap:butt;stroke-linejoin:miter;stroke-miterlimit:4;stroke-dasharray:none;stroke-opacity:1" />
    <rect
       clip-path="url(#clipPath1720)"
       y="605.72052"
       x="533.36053"
       height="208.09143"
       width="165.66502"
       id="rect1716"
       style="opacity:0;fill:#fe5196;fill-opacity:1;stroke:#ffffff;stroke-width:0;stroke-miterlimit:4;stroke-dasharray:none;stroke-opacity:1" />
  </g>
</svg>
